<?xml version="1.0" encoding="UTF-8"?>
<!DOCTYPE svg PUBLIC "-//W3C//DTD SVG 1.1//EN" "http://www.w3.org/Graphics/SVG/1.1/DTD/svg11.dtd">
<svg xmlns="http://www.w3.org/2000/svg" xmlns:xlink="http://www.w3.org/1999/xlink" version="1.1" width="381px" height="381px" viewBox="-0.5 -0.5 381 381"><defs/><g><rect x="0" y="0" width="380" height="380" rx="57" ry="57" fill="#ffed5a" stroke="#f6cbfb" pointer-events="all"/><rect x="40" y="240" width="60" height="60" rx="9" ry="9" fill="#fffacd" stroke="#f6cbfb" stroke-width="5" pointer-events="all"/><rect x="120" y="240" width="60" height="60" rx="9" ry="9" fill="#fffacd" stroke="#f6cbfb" stroke-width="5" pointer-events="all"/><rect x="200" y="240" width="60" height="60" rx="9" ry="9" fill="#fffacd" stroke="#f6cbfb" stroke-width="5" pointer-events="all"/><rect x="280" y="240" width="60" height="60" rx="9" ry="9" fill="#fffacd" stroke="#f6cbfb" stroke-width="5" pointer-events="all"/><rect x="80" y="160" width="60" height="60" rx="9" ry="9" fill="#fffacd" stroke="#f6cbfb" stroke-width="5" pointer-events="all"/><rect x="160" y="160" width="60" height="60" rx="9" ry="9" fill="#fffacd" stroke="#f6cbfb" stroke-width="5" pointer-events="all"/><rect x="240" y="160" width="60" height="60" rx="9" ry="9" fill="#fffacd" stroke="#f6cbfb" stroke-width="5" pointer-events="all"/><rect x="40" y="80" width="60" height="60" rx="9" ry="9" fill="#fffacd" stroke="#f6cbfb" stroke-width="5" pointer-events="all"/><rect x="120" y="80" width="60" height="60" rx="9" ry="9" fill="#fffacd" stroke="#f6cbfb" stroke-width="5" pointer-events="all"/><rect x="200" y="80" width="60" height="60" rx="9" ry="9" fill="#fffacd" stroke="#f6cbfb" stroke-width="5" pointer-events="all"/><rect x="280" y="80" width="60" height="60" rx="9" ry="9" fill="#fffacd" stroke="#f6cbfb" stroke-width="5" pointer-events="all"/></g></svg>